<?xml version="1.0" encoding="UTF-8"?>
<svg id="Layer_2" data-name="Layer 2" xmlns="http://www.w3.org/2000/svg" viewBox="0 0 535.43 458.93">
  <g id="Layer_1-2" data-name="Layer 1">
    <g>
      <path d="M381.95,309.6c-26.32,7-52.29,14.58-78.02,23.95-3.29,1.2-5.83,3.75-9.84,2.32-2.32-.83-4.9-2.92-7.13-6.09-1.96-2.78-.73-7.57,1.3-10.31,1.86-2.51,5.81-5.56,9.33-4.57,6.42,1.81,15.13-.1,22.9-1.93l61.65-14.58-.08-31.36-1-17.06-1.03-11.95-1.11-12.83c-2.88-33.36-8.42-65.87-17.52-98.13l-5.58-16.72c-10.63-31.86-31.21-60.22-60.76-77.15-21.77-12.48-45.96-18.74-71.14-20.73h-29.35c-13.08-.02-25.34,2.97-37.96,7.06-31.74,10.3-59.68,29.11-81.82,53.87-18.07,20.21-36.42,50.5-45.33,75.31l-3.77,10.49c-7.29,20.3-13.14,40.74-9.71,62.2.57,3.56.49,8.36,3.45,10.84,6.23-.57,12.47.79,18.91,1.37,4.87.44,8.2,2.07,10.91,5.32,2.54,3.04,3.41,8.31.8,11.89-2.73,3.75-7.6,4.21-12.19,6.66,13.96,10.77,31.64,15.41,49.53,14.32l15.96-.97c20.69-1.25,39.93-7.92,59.67-14.41-3.23-1.82-4.87-3.89-5.99-5.03-1.66-4.05-.97-7,.52-10.27,4.55-1.37,6.48-6.44,10.4-8.44,4.42-2.26,12.02-.55,16.53.92,5.24,1.71,6.99,6.54,7.63,11.84l22.05-9.67c4.76-2.09,9.34-2.83,13.4.53s4.78,8.62,2.74,13.15c-2.32,5.15-7.46,5.76-13.11,5.59-8.79-.26-16.75,3.74-24.93,6.17l-58.33,17.35-28.35,5.71c-2.51,4.61-3.65,9.22-4.62,14.59-6.1,33.92-10.96,67.68-14.81,102.04l-1.05,14.17c-.3,4.1-2.08,9.29-.1,13.18,2.23,4.38,3.02,7.67,2.47,12.89l-.75,7.2c-.69,6.59-5.93,11.49-12.5,10.47-5.86-1.24-9.98-7.11-7.99-13.62-1.89-5.31-1.15-10.64,2.14-15.37l8.74-63.84c-2.8,2.19-2.67,4.7-4.03,6.96l-13.08,21.8c-6.6,10.99-12.51,22-18.48,33.41-1.8,3.44-7.33,3.6-9.67,1.96-3.37-2.36-5.04-6.22-2.56-10.21,8.95-14.39,17.35-28.52,25.39-43.54,6.23-11.64,12.98-22.77,16.03-35.8.79-3.36-1.53-6.92,1.6-10.15,2.36-2.44,5.22-5.1,9.71-4.48,2.03-2.84.86-5.97,1.39-8.84,1.59-8.62,2.04-21.65,1.71-31.09-39.83,1.87-82.18-24.01-84.86-64.86-.98-14.9.78-28.21,4.71-42.43,6.3-22.83,15.83-43.95,26.95-65.04,9.81-18.6,21.84-34.74,35.31-50.65,4.15-4.91,8.49-8.59,13.23-12.9C112.52,20.97,149,3.25,192.77.44c49.76-3.19,107.2,10.91,141.04,48.95,22.45,25.24,34.63,59.6,41.78,92.51,8.18,37.66,13.21,75.39,15.74,113.96l.67,10.24.42,29.52,83.31-20.2c-2.41-4.78-1.91-8.93-2.56-13.49l-2.21-15.35c-3.07,2.29-4.7,3.71-6.97,3.82-2.94.14-5.2-2.35-7.13-3.89-10.14-1.25-18.39-6.7-23.51-15.81-1.74-8.12-.68-16.79,2.7-24.93,2.88-.78,2.75-3.25,3.82-5.37,1.46-2.9,4.64-5.57,3.45-9.33s1.52-6.54,2.03-9.51c.48-2.76-.06-9.19,4.51-9.79,5-.66,10.14-1.58,15.55-2.53l18.94-3.3c5.44-.95,11.36-.95,16.31.67,3.62,1.18,5.42,4.84,7.47,7.57l1.92,1.26c.31.2-1.05,1.07-1.36,1.44.36,2.67,2.61,5.36,3.83,7.8,9.21,3.83,11.41,13.54,7.39,21.71-2.3,4.66-3.95,7.97-7.59,11.67l-8.41,8.56-6.38,6.6c-1.95,2.02-6.84,2.9-6.47,6.61.19,1.96,2.69,4.29,1.21,6.83l4.18,1.03c7.19-3.06,13.01-7.83,19.39-12.05l8.21-5.43c2.62-1.73,7.36-3.54,9.87-.66,1.47,1.63,2.14,6.97.68,8.72l-13.9,13.23-7.32,5.3c-9.65,6.98-20.28,4.32-21.69,15.18,6.46-.6,10.09,3.83,10.68,8.52.71,5.59-2.15,10.18-8.32,11.88,1.27,1.92,3.14,4.98,2.49,7.41l-3.06,11.45c-.69,2.56-.84,5.06-1.11,7.74-.3,2.93-1.63,5.05-.69,8.59,1.04,3.91-4.7,7.77-12.9,6.52-2.65-1.4-5.94-5.78-5.49-8.76l1.23-8.27c.98-6.55,1.37-12.82.37-19.44-5.83,1.8-9.92-.65-11.93-5.61l-15.84,2.84c-7.39,1.32-14.51,2.59-21.87,4.31l-29.85,6.96c-1.94.45-3.06,1.91-3.08,3.91l-.31,29.01-.96,15.06-1.16,14.66c-1.47,18.68-6.78,60.14-13.99,72.78-2.72,4.77-6.77,7.42-12.12,6.54-4.39-.72-8.92-4.62-9.39-10.24-.4-4.7,1.05-9.8,2.45-14.13,1.54-4.74,5.98-6.01,10.41-5.88,5.4-14.38,8.64-29.99,10.43-45.31l2.76-23.57c.59-5.03.8-9.89.98-14.98.28-7.88,1.7-14.69.49-24.37Z"/>
      <circle cx="60.13" cy="214.56" r="10.61"/>
      <path d="M141.13,219.87c6.62.77,9.78,6.55,9.37,11.78-.48,6.15-5.74,9.86-11.72,9.39-5.4-.42-9.85-5.89-9.37-11.41s5.61-10.47,11.72-9.76Z"/>
    </g>
  </g>
</svg>