<?xml version="1.0" encoding="UTF-8"?>
<svg id="Layer_2" data-name="Layer 2" xmlns="http://www.w3.org/2000/svg" viewBox="0 0 280.67 350.1">
  <g id="Layer_1-2" data-name="Layer 1">
    <g>
      <path d="M204.57,342.06c3.3,2,8.41-2.66,11.22,1.6.84,1.27-.35,4.74-2.16,5.32-3.4,1.09-8.86,1.79-11.77.22-8.28-4.47-10.39-13.43-7.96-21.98,1.34-4.72,3.57-11.78,1.08-16.01-5.19-6.57-14.84-6.46-21.73-6.1.53,11.23.68,20.97-1.38,31.29-.81,4.05-6.47,6.56-9.97,6.3-3.44-.25-8.65-2.81-9.8-6.63l-6.56-21.81h-10.39s-6.55,21.81-6.55,21.81c-1.15,3.83-6.36,6.38-9.8,6.64-3.53.26-9.17-2.19-9.98-6.38-1.88-9.73-2.06-19.67-1.21-29.51l1.9-22.05-15.49,9.7c-4.54,2.84-11.68,4.1-16.37,1.1-3.47-2.22-3.3-7.9-2.03-11.62,5.26-15.49,14.83-28.05,26.02-39.88,3.04-3.21,5.42-7.76,3.45-11.56l-22.91-4.31c-19.59-3.68-28.25-11.17-33.85-12.01-25.78-3.84-44.62-23.33-47.81-49.38-2.6-21.15,5-41.71,18.7-57.24-2.33-1.58-3.54-4.51-3.18-7.56,2.7-23.31,6.64-46.06,14.01-68.31,1.72-5.19,4.66-10.12,6.72-15.13C42.12,5.52,53.46-4.92,60.35,2.43c9.15,9.76,16.98,20.1,24.87,31.01,4.98,6.88,19.95,3.02,35.86,4.43,13.17,1.16,25.38,1.26,38.54.03,9.5-.89,18.98-.14,28.73-.46,3.89-.13,6.73-3.36,8.82-6.3,7.09-9.95,14.49-19.2,22.63-28.27,3.99-4.44,11.1-2.78,14.57,1.13,4.04,4.56,7.11,9.03,9.56,14.55l6.72,15.14c7.37,22.26,11.32,45,14.01,68.31.37,3.23-1.08,6.25-3.18,7.57,13.61,15.41,20.68,35.02,18.92,55.28-2.89,33.2-31.54,55.49-64.13,51.47l-17.18,6.55-23.62,7.18c-1.59,3.52.05,8.23,2.44,11.09l12.77,15.28c6.72,8.04,12.3,15.99,14.47,26.6,1.01,4.95-.02,9.62-4.4,12.77-3.48,2.5-9.7,2.55-13.61-.9l-15.18-13.43c-.63,5.61-.53,10.74.09,16.16,9.88-.79,18,.39,25.82,5.6,14.39,9.58-4.62,31.99,6.68,38.84ZM157.66,224.66c15.95-1.59,29.79-5.06,45.28-11.32-30.03-10.45-52.11-39.73-51.02-73.03,1.07-32.69,26.99-56.91,59.46-55.38,17.45.82,32.79,8.26,45.94,20.22-2.33-23.76-6.45-46.76-13.82-69.18l-5.85-13.1c-2.74-6.15-5.7-11.16-11.73-15.82-9.36,10.85-17.31,21.16-25.62,32.2-6.8,9.03-23.49,4.58-39.97,6.11-13.64,1.27-26.33,1.27-39.98.01-17.09-1.57-33.23,3.1-40.4-6.61-8.12-11-15.95-21.02-25.19-31.71-5.98,4.65-9,9.67-11.72,15.81l-6.1,13.79c-7.16,22.32-11.27,44.99-13.56,68.41l9.15-7.45c-.63-1.84-1.2-4.25-.82-5.33s3.04-1.87,4.23-1.44c5.74,2.04,12.21,2.71,18.55,3.49l43.13,5.33c13.01,1.61,33.78,1.3,31.58,8.69-.39,1.32-3.01,2.77-4.32,2.55l-5.38-.88c6.79,11.08,10.01,22.95,9.26,36.08-2,35.09-27.74,63.37-61.87,70.23,17.67,5.3,34.26,8.32,51.75,10.06,12.98,1.29,25.55-.38,39.03-1.72ZM202.72,94.41c8.55-1.05,16.99.61,25.16,4.22,21.66,9.58,36.49,28.44,44.22,50.51-3.86-25.78-22.77-46.88-47.38-54.46-16.16-4.98-32.65-2.51-46.27,7.7-12.01,9.01-19.33,24.22-19.09,40.84.43,30.23,21.7,56.99,51,64.37,16.56,4.17,33.65.74,46.04-10.49-10.95,3.95-21.58,4.18-32.46-.13-23.34-9.23-40.88-29.72-47.33-54.09-5.86-22.14,2.55-44.43,26.12-48.47ZM46.67,101.54c-3.95-1.12-5.67-.48-7.87.89-15.69,11.19-27.7,27.14-30.13,46.75,6.83-20.33,19.76-36.98,37.99-47.64ZM70.76,207.44c28.02-7.22,48.14-31.93,50.41-60.22,1.18-14.69-3.19-27.65-12.18-38.85l-9.04-.84c5.45,10.09,7.09,19.59,5.1,30.48-4.82,26.34-23.46,49.05-48.3,58.97-11.06,4.42-21.85,3.88-32.4.21,12.89,11.35,29.53,14.6,46.41,10.25ZM152.9,308.01c.89,8.7,2.61,14.12,4.73,21.42.85,2.94,3.09,7.14,6.82,5.42,2.47-11.74,1.94-23.58.31-35.32s-2.28-25.71,6.53-28.8l20,17.98c.99.89,4.1,1.59,5.17,1.02s1.66-3.12,1.44-4.39c-1.68-9.65-6.66-16.45-12.55-23.57l-13.6-16.41c-3.41-4.11-4.81-8.92-4.34-14.54-18.26,2.77-35.79,4.41-54.26,2.84-.07,2.58.46,7.5-.9,9.12l-7.23,8.65c-9.2,11.01-17.82,21.72-22.51,35.48-.22.64-.14,2.55.48,2.63l2.48.3c9.41-3.55,17.5-9.05,24.59-16.52,1.12-.7,4.45-1.07,5.12,0,1.93,3.1,1.92,18.36.7,27.03-1.62,11.48-2.07,22.99.42,34.48,3.08,1.61,5.78-1.91,6.57-4.65,2.22-7.67,4.05-13.96,5.03-22.11,8.01-.56,16.99-.71,25.01-.07Z"/>
      <path d="M209.77,71.37c-12.1-2.09-23.15,2.82-32.36,7.88-1.25.68-3.59-2.38-3.21-3.47s1.49-3.63,2.51-4.29c9.19-5.94,20.3-8.63,31.34-7.99,8.69.51,19.75,8.2,17.46,13.75s-9.43-4.78-15.75-5.88Z"/>
      <path d="M143.38,203.4c.06,5.95-9.82,6.92-12.24,2.4.12-2.08,3.27-4.37,5.02-4.92,2.06-.63,7.18-.42,7.22,2.52Z"/>
    </g>
  </g>
</svg>