<?xml version="1.0" encoding="UTF-8"?>
<svg id="Layer_2" data-name="Layer 2" xmlns="http://www.w3.org/2000/svg" viewBox="0 0 214.24 54.4">
  <defs>
    <style>
      .cls-1 {
        fill: none;
      }
    </style>
  </defs>
  <g id="Layer_1-2" data-name="Layer 1">
    <g id="Logo-4">
      <g>
        <g>
          <path d="M47.44,36.22c0-10.36,7.23-17.92,17.27-17.92,11.01,0,18.31,8.93,16.68,20.26h-24.69c.59,5.67,3.32,8.8,7.95,8.8,3.97,0,6.65-1.96,7.69-5.41h8.99c-1.95,7.88-8.01,12.38-16.48,12.38-10.42,0-17.4-7.23-17.4-18.11ZM56.82,32.83h14.99c-.26-4.82-3-7.88-7.3-7.88s-6.91,2.74-7.69,7.88Z"/>
          <path d="M84.52,36.35c0-10.42,7.17-18.05,16.94-18.05,9.06,0,15.77,6.12,16.88,15.51h-9.51c-.46-4.63-3.26-7.49-7.36-7.49-4.69,0-7.69,3.84-7.69,10.03s2.93,10.03,7.69,10.03c4.17,0,6.84-2.74,7.36-7.49h9.51c-1.04,9.58-7.56,15.51-16.88,15.51-10.03,0-16.94-7.43-16.94-18.05Z"/>
          <path d="M145.76,52.84c-2.22,1.11-4.3,1.56-6.97,1.56-7.17,0-11.66-4.1-11.66-11.92v-15.77h-7.04v-7.75h7.04v-10.29h8.99v10.29h9.97v7.75h-9.97v13.68c0,4.04,1.82,5.67,5.08,5.67,1.69,0,3.26-.39,4.56-1.11v7.88Z"/>
          <path d="M148.57,36.35c0-10.16,7.56-18.05,17.66-18.05s17.66,7.88,17.66,18.05-7.56,18.05-17.66,18.05-17.66-7.95-17.66-18.05ZM174.57,36.35c0-6.45-3.84-9.97-8.34-9.97s-8.34,3.52-8.34,9.97,3.84,10.03,8.34,10.03,8.34-3.58,8.34-10.03Z"/>
          <path d="M192.62,53.75v-26.64h-4.37v-8.8h8.98v6.85h2.48c.98-2.36,2.5-4.16,4.55-5.38,2.05-1.22,4.39-1.83,7.03-1.83h2.95v7.56h-3.37c-3.19,0-5.58.93-7.18,2.78-1.6,1.85-2.39,4.31-2.39,7.38v18.08h-8.68Z"/>
        </g>
        <polygon points="20.19 31.35 13.8 42.86 0 21.82 13.53 21.82 20.19 31.35"/>
        <polygon points="46.44 0 46.44 19.57 42.41 17.32 21.17 54.1 14.9 44.55 33.23 12.01 29.48 9.79 46.44 0"/>
      </g>
      <line class="cls-1" x1="21.17" y1="54.1" x2="14.9" y2="44.55"/>
      <line class="cls-1" x1="13.8" y1="42.86" y2="21.82"/>
    </g>
  </g>
</svg>