<svg width="11" height="13" viewBox="0 0 11 13" fill="none" xmlns="http://www.w3.org/2000/svg">
<path d="M11 3.46951V0.285989C11 0.12804 10.872 0 10.7137 0H5.5H0.286325C0.12804 0 0 0.12804 0 0.285989V3.46951C0 3.6278 0.12804 3.75583 0.286325 3.75583H1.80667C1.96462 3.75583 2.09266 3.6278 2.09266 3.46951V2.37899C2.09266 2.2207 2.22104 2.09266 2.37899 2.09266H4.16718C4.32546 2.09266 4.4535 2.2207 4.4535 2.37899V10.2476C4.4535 10.4058 4.32546 10.5339 4.16718 10.5339H3.38516C3.22687 10.5339 3.09883 10.6619 3.09883 10.8202V12.3406C3.09883 12.4985 3.22687 12.6265 3.38516 12.6265H5.5H7.61484C7.77313 12.6265 7.90117 12.4985 7.90117 12.3406V10.8202C7.90117 10.6619 7.77313 10.5339 7.61484 10.5339H6.83282C6.67454 10.5339 6.5465 10.4058 6.5465 10.2476V2.37899C6.5465 2.2207 6.67454 2.09266 6.83282 2.09266H8.62101C8.77896 2.09266 8.90734 2.2207 8.90734 2.37899V3.46951C8.90734 3.6278 9.03538 3.75583 9.19333 3.75583H10.7137C10.872 3.75583 11 3.6278 11 3.46951Z" fill="#000000"/>
</svg>
